<?xml version="1.0" standalone="no"?>
<!DOCTYPE svg PUBLIC "-//W3C//DTD SVG 20010904//EN"
 "http://www.w3.org/TR/2001/REC-SVG-20010904/DTD/svg10.dtd">
<svg version="1.0" xmlns="http://www.w3.org/2000/svg"
 width="480.000000pt" height="480.000000pt" viewBox="0 0 480.000000 480.000000"
 preserveAspectRatio="xMidYMid meet">
<metadata>
Created by potrace 1.14, written by Peter Selinger 2001-2017
</metadata>
<g transform="translate(0.000000,480.000000) scale(0.100000,-0.100000)"
fill="#000000" stroke="none">
<path d="M330 4390 l0 -160 -80 0 -79 0 -3 -77 -3 -78 -77 -3 -78 -3 0 -149 0
-149 78 -3 77 -3 3 -77 3 -78 237 -2 237 -3 3 -77 3 -77 77 -3 77 -3 3 -77 3
-77 77 -3 77 -3 3 -87 3 -88 -241 0 -240 0 0 -150 0 -150 78 -1 c42 -1 150 -2
240 -3 l162 -1 0 -157 0 -157 78 -3 77 -3 3 -157 3 -157 77 -3 77 -3 3 -77 3
-77 77 -3 77 -3 3 -77 3 -77 77 -3 77 -3 3 -87 3 -88 -80 0 -80 0 -3 -77 -3
-78 -157 -3 -157 -3 -3 -77 -3 -77 -77 -3 -77 -3 -3 -77 -3 -77 -85 0 -85 0
-3 78 -3 77 -149 0 -149 0 -3 -77 -3 -78 -77 -3 -78 -3 0 -229 0 -229 158 -3
157 -3 3 -157 3 -157 77 -3 77 -3 3 -77 3 -78 149 0 149 0 3 78 3 77 77 3 78
3 2 237 3 237 77 3 77 3 3 77 3 77 85 0 85 0 3 -157 3 -157 77 -3 77 -3 3 -77
3 -77 157 -3 157 -3 3 -78 3 -77 309 0 309 0 3 78 3 77 157 3 157 3 3 77 3 77
77 3 77 3 3 157 3 157 85 0 85 0 3 -77 3 -77 77 -3 77 -3 3 -237 2 -237 78 -3
77 -3 3 -77 3 -78 149 0 149 0 3 78 3 77 77 3 77 3 3 157 3 157 158 3 157 3 0
229 0 229 -77 3 -78 3 -3 78 -3 77 -149 0 -149 0 -3 -77 -3 -78 -85 0 -85 0
-3 77 -3 77 -77 3 -77 3 -3 77 -3 77 -157 3 -157 3 -3 77 -3 78 -80 0 -80 0 3
88 3 87 77 3 77 3 3 77 3 77 77 3 77 3 3 77 3 77 77 3 77 3 3 157 3 157 78 3
77 3 0 153 c0 114 3 155 13 158 6 2 116 4 243 2 l231 -2 -2 72 c-1 39 -2 108
-3 154 l-2 82 -240 0 -241 0 3 88 3 87 77 3 77 3 3 77 3 77 77 3 77 3 3 77 3
77 237 3 237 2 3 78 3 77 78 3 77 3 0 149 0 149 -77 3 -78 3 -3 78 -3 77 -79
0 -80 0 0 160 0 160 -230 0 -229 0 -3 -77 -3 -78 -77 -3 -78 -3 0 -149 0 -149
78 -3 77 -3 0 -85 0 -85 -77 -3 -77 -3 -3 -77 -3 -77 -77 -3 -77 -3 -3 -77 -3
-77 -85 0 -85 0 -3 77 -3 77 -77 3 -77 3 -3 77 -3 77 -77 3 -77 3 -3 77 -3 77
-157 3 -157 3 -3 78 -3 77 -469 0 -469 0 -3 -77 -3 -78 -157 -3 -157 -3 -3
-77 -3 -77 -77 -3 -77 -3 -3 -77 -3 -77 -77 -3 -77 -3 -3 -77 -3 -77 -85 0
-85 0 -3 77 -3 77 -77 3 -77 3 -3 77 -3 77 -77 3 -77 3 0 85 0 85 78 3 77 3 0
149 0 149 -77 3 -78 3 -3 78 -3 77 -229 0 -230 0 0 -160z"/>
</g>
</svg>
